<?xml version="1.0" encoding="UTF-8"?>
<!DOCTYPE svg PUBLIC "-//W3C//DTD SVG 1.1//EN" "http://www.w3.org/Graphics/SVG/1.1/DTD/svg11.dtd">
<!-- Creator: CorelDRAW X7 -->
<svg xmlns="http://www.w3.org/2000/svg" xml:space="preserve" width="100px" height="100px" version="1.1" style="shape-rendering:geometricPrecision; text-rendering:geometricPrecision; image-rendering:optimizeQuality; fill-rule:evenodd; clip-rule:evenodd"
viewBox="0 0 99999 99999"
 xmlns:xlink="http://www.w3.org/1999/xlink">
 <defs>
  <style type="text/css">
   <![CDATA[
    .str0 {stroke:#204B70;stroke-width:416.923;stroke-linecap:round;stroke-linejoin:round}
    .fil3 {fill:none}
    .fil0 {fill:none;fill-rule:nonzero}
    .fil4 {fill:#FEFEFE}
    .fil2 {fill:#C49624}
    .fil5 {fill:#FEFEFE;fill-rule:nonzero}
    .fil1 {fill:#204B70;fill-rule:nonzero}
   ]]>
  </style>
 </defs>
 <g id="Layer_x0020_1">
  <metadata id="CorelCorpID_0Corel-Layer"/>
  <g>
   <polygon class="fil0 str0" points="9645,88011 5996,88011 5996,81948 9518,81948 9276,82702 7012,82702 7012,84371 8986,84371 8751,85101 7012,85101 7012,87248 9645,87248 "/>
  </g>
  <g>
   <path id="1" class="fil0 str0" d="M10503 81948c395,-34 1054,-52 1975,-52 967,0 1715,248 2242,743 527,495 791,1201 791,2119 0,1136 -288,1971 -860,2504 -572,533 -1477,798 -2714,798 -599,0 -1076,-16 -1434,-49l0 -6063zm1016 5351c117,16 294,24 528,24 808,0 1409,-199 1805,-597 395,-398 593,-1011 593,-1839 0,-773 -178,-1342 -533,-1708 -354,-368 -895,-553 -1622,-553 -291,0 -548,12 -771,35l0 4638z"/>
  </g>
  <g>
   <path id="2" class="fil0 str0" d="M21050 85436c0,1041 -170,1746 -510,2120 -340,373 -920,559 -1743,559 -827,0 -1409,-187 -1747,-561 -339,-375 -508,-1021 -508,-1937l0 -3669 1002 0 0 3358c0,797 91,1347 274,1650 184,304 510,455 979,455 527,0 887,-155 1078,-466 193,-310 290,-842 290,-1596l0 -3401 885 0 0 3488z"/>
  </g>
  <g>
   <path id="3" class="fil0 str0" d="M26802 86363l-197 1191c-561,374 -1228,561 -1999,561 -775,0 -1405,-273 -1889,-821 -483,-548 -724,-1274 -724,-2177 0,-978 270,-1768 814,-2369 542,-601 1294,-901 2259,-901 604,0 1136,77 1597,230l-288 886c-192,-108 -415,-194 -669,-261 -256,-67 -480,-101 -673,-101 -615,0 -1097,213 -1446,637 -347,422 -520,1011 -520,1766 0,712 148,1273 447,1682 300,407 699,613 1200,613 355,0 695,-74 1016,-219 324,-145 680,-385 1072,-717z"/>
  </g>
  <g>
   <path id="4" class="fil0 str0" d="M32802 88011l-1023 0 -666 -1761 -2269 0 -721 1761 -952 0 2473 -6063 815 0 2343 6063zm-2009 -2549l-788 -2064 -843 2064 1631 0z"/>
  </g>
  <g>
   <polygon id="5" class="fil0 str0" points="37273,82728 35364,82728 35364,88011 34349,88011 34349,82728 32446,82728 32446,81948 37273,81948 "/>
  </g>
  <g>
   <polygon id="6" class="fil0 str0" points="39151,88011 38136,88011 38136,81948 39151,81948 "/>
  </g>
  <g>
   <path id="7" class="fil0 str0" d="M43167 81847c831,0 1483,271 1954,815 472,544 709,1254 709,2128 0,1016 -258,1822 -775,2424 -518,601 -1226,901 -2126,901 -828,0 -1478,-272 -1948,-816 -471,-546 -706,-1262 -706,-2148 0,-979 252,-1774 756,-2385 505,-613 1216,-919 2136,-919zm-171 5509c556,0 990,-210 1303,-628 311,-419 466,-1012 466,-1774 0,-752 -139,-1331 -419,-1741 -280,-407 -692,-612 -1236,-612 -554,0 -987,213 -1301,637 -313,422 -469,1005 -469,1750 0,766 141,1352 421,1759 281,406 693,609 1235,609z"/>
  </g>
  <g>
   <polygon id="8" class="fil0 str0" points="51429,88011 50813,88011 47746,83496 47746,88011 46863,88011 46863,81948 47840,81948 50543,85949 50543,81948 51429,81948 "/>
  </g>
  <g>
   <path id="9" class="fil0 str0" d="M59942 88011l-1022 0 -667 -1761 -2268 0 -722 1761 -952 0 2473 -6063 815 0 2343 6063zm-2009 -2549l-787 -2064 -844 2064 1631 0z"/>
  </g>
  <g>
   <path id="10" class="fil0 str0" d="M64908 86363l-198 1191c-561,374 -1228,561 -1999,561 -775,0 -1404,-273 -1889,-821 -483,-548 -724,-1274 -724,-2177 0,-978 271,-1768 814,-2369 542,-601 1295,-901 2259,-901 604,0 1137,77 1597,230l-288 886c-191,-108 -414,-194 -668,-261 -257,-67 -481,-101 -674,-101 -615,0 -1097,213 -1445,637 -348,422 -521,1011 -521,1766 0,712 149,1273 448,1682 299,407 699,613 1199,613 355,0 695,-74 1016,-219 324,-145 681,-385 1073,-717z"/>
  </g>
  <g>
   <path id="11" class="fil0 str0" d="M70908 88011l-1023 0 -666 -1761 -2269 0 -722 1761 -952 0 2473 -6063 815 0 2344 6063zm-2009 -2549l-788 -2064 -844 2064 1632 0z"/>
  </g>
  <g>
   <path id="12" class="fil0 str0" d="M71725 81948c394,-34 1053,-52 1975,-52 967,0 1715,248 2241,743 527,495 792,1201 792,2119 0,1136 -289,1971 -860,2504 -573,533 -1478,798 -2714,798 -599,0 -1076,-16 -1434,-49l0 -6063zm1016 5351c117,16 294,24 528,24 807,0 1409,-199 1804,-597 396,-398 593,-1011 593,-1839 0,-773 -177,-1342 -533,-1708 -354,-368 -895,-553 -1621,-553 -292,0 -548,12 -771,35l0 4638z"/>
  </g>
  <g>
   <polygon id="13" class="fil0 str0" points="81453,88011 77805,88011 77805,81948 81327,81948 81085,82702 78821,82702 78821,84371 80794,84371 80559,85101 78821,85101 78821,87248 81453,87248 "/>
  </g>
  <g>
   <polygon id="14" class="fil0 str0" points="88761,88011 87801,88011 87411,83621 85525,88011 85164,88011 83361,83621 82983,88011 82140,88011 82657,81948 83687,81948 85412,86158 87214,81948 88228,81948 "/>
  </g>
  <g>
   <polygon id="15" class="fil0 str0" points="93992,81948 91950,85382 91950,88011 90934,88011 90934,85398 89040,81948 90121,81948 91493,84543 92990,81948 "/>
  </g>
  <polygon id="16" class="fil1" points="9645,88011 5996,88011 5996,81948 9518,81948 9276,82702 7012,82702 7012,84371 8986,84371 8751,85101 7012,85101 7012,87248 9645,87248 "/>
  <path id="17" class="fil1" d="M10503 81948c395,-34 1054,-52 1975,-52 967,0 1715,248 2242,743 527,495 791,1201 791,2119 0,1136 -288,1971 -860,2504 -572,533 -1477,798 -2714,798 -599,0 -1076,-16 -1434,-49l0 -6063zm1016 5351c117,16 294,24 528,24 808,0 1409,-199 1805,-597 395,-398 593,-1011 593,-1839 0,-773 -178,-1342 -533,-1708 -354,-368 -895,-553 -1622,-553 -291,0 -548,12 -771,35l0 4638z"/>
  <path id="18" class="fil1" d="M21050 85436c0,1041 -170,1746 -510,2120 -340,373 -920,559 -1743,559 -827,0 -1409,-187 -1747,-561 -339,-375 -508,-1021 -508,-1937l0 -3669 1002 0 0 3358c0,797 91,1347 274,1650 184,304 510,455 979,455 527,0 887,-155 1078,-466 193,-310 290,-842 290,-1596l0 -3401 885 0 0 3488z"/>
  <path id="19" class="fil1" d="M26802 86363l-197 1191c-561,374 -1228,561 -1999,561 -775,0 -1405,-273 -1889,-821 -483,-548 -724,-1274 -724,-2177 0,-978 270,-1768 814,-2369 542,-601 1294,-901 2259,-901 604,0 1136,77 1597,230l-288 886c-192,-108 -415,-194 -669,-261 -256,-67 -480,-101 -673,-101 -615,0 -1097,213 -1446,637 -347,422 -520,1011 -520,1766 0,712 148,1273 447,1682 300,407 699,613 1200,613 355,0 695,-74 1016,-219 324,-145 680,-385 1072,-717z"/>
  <path id="20" class="fil1" d="M32802 88011l-1023 0 -666 -1761 -2269 0 -721 1761 -952 0 2473 -6063 815 0 2343 6063zm-2009 -2549l-788 -2064 -843 2064 1631 0z"/>
  <polygon id="21" class="fil1" points="37273,82728 35364,82728 35364,88011 34349,88011 34349,82728 32446,82728 32446,81948 37273,81948 "/>
  <polygon id="22" class="fil1" points="39151,88011 38136,88011 38136,81948 39151,81948 "/>
  <path id="23" class="fil1" d="M43167 81847c831,0 1483,271 1954,815 472,544 709,1254 709,2128 0,1016 -258,1822 -775,2424 -518,601 -1226,901 -2126,901 -828,0 -1478,-272 -1948,-816 -471,-546 -706,-1262 -706,-2148 0,-979 252,-1774 756,-2385 505,-613 1216,-919 2136,-919zm-171 5509c556,0 990,-210 1303,-628 311,-419 466,-1012 466,-1774 0,-752 -139,-1331 -419,-1741 -280,-407 -692,-612 -1236,-612 -554,0 -987,213 -1301,637 -313,422 -469,1005 -469,1750 0,766 141,1352 421,1759 281,406 693,609 1235,609z"/>
  <polygon id="24" class="fil1" points="51429,88011 50813,88011 47746,83496 47746,88011 46863,88011 46863,81948 47840,81948 50543,85949 50543,81948 51429,81948 "/>
  <path id="25" class="fil1" d="M59942 88011l-1022 0 -667 -1761 -2268 0 -722 1761 -952 0 2473 -6063 815 0 2343 6063zm-2009 -2549l-787 -2064 -844 2064 1631 0z"/>
  <path id="26" class="fil1" d="M64908 86363l-198 1191c-561,374 -1228,561 -1999,561 -775,0 -1404,-273 -1889,-821 -483,-548 -724,-1274 -724,-2177 0,-978 271,-1768 814,-2369 542,-601 1295,-901 2259,-901 604,0 1137,77 1597,230l-288 886c-191,-108 -414,-194 -668,-261 -257,-67 -481,-101 -674,-101 -615,0 -1097,213 -1445,637 -348,422 -521,1011 -521,1766 0,712 149,1273 448,1682 299,407 699,613 1199,613 355,0 695,-74 1016,-219 324,-145 681,-385 1073,-717z"/>
  <path id="27" class="fil1" d="M70908 88011l-1023 0 -666 -1761 -2269 0 -722 1761 -952 0 2473 -6063 815 0 2344 6063zm-2009 -2549l-788 -2064 -844 2064 1632 0z"/>
  <path id="28" class="fil1" d="M71725 81948c394,-34 1053,-52 1975,-52 967,0 1715,248 2241,743 527,495 792,1201 792,2119 0,1136 -289,1971 -860,2504 -573,533 -1478,798 -2714,798 -599,0 -1076,-16 -1434,-49l0 -6063zm1016 5351c117,16 294,24 528,24 807,0 1409,-199 1804,-597 396,-398 593,-1011 593,-1839 0,-773 -177,-1342 -533,-1708 -354,-368 -895,-553 -1621,-553 -292,0 -548,12 -771,35l0 4638z"/>
  <polygon id="29" class="fil1" points="81453,88011 77805,88011 77805,81948 81327,81948 81085,82702 78821,82702 78821,84371 80794,84371 80559,85101 78821,85101 78821,87248 81453,87248 "/>
  <polygon id="30" class="fil1" points="88761,88011 87801,88011 87411,83621 85525,88011 85164,88011 83361,83621 82983,88011 82140,88011 82657,81948 83687,81948 85412,86158 87214,81948 88228,81948 "/>
  <polygon id="31" class="fil1" points="93992,81948 91950,85382 91950,88011 90934,88011 90934,85398 89040,81948 90121,81948 91493,84543 92990,81948 "/>
  <path class="fil2" d="M48874 70391c-79,-171 -177,-333 -291,-481 -116,-154 -246,-296 -390,-427 -291,-260 -637,-495 -1028,-690 -779,-398 -1528,-745 -2065,-1110 -135,-88 -259,-178 -370,-261 -111,-86 -208,-160 -295,-230 -173,-137 -304,-226 -399,-221 -96,-11 -155,104 -165,312 -10,206 25,508 116,875 23,92 49,188 80,288 16,50 31,99 50,151 14,52 35,103 54,155 76,209 170,431 281,660 56,116 117,235 182,353 64,116 134,234 207,355 77,118 155,241 237,361 44,62 88,122 133,182 45,59 91,121 139,180 93,118 189,236 284,348 47,56 95,111 141,168 25,26 48,53 73,78 23,27 45,53 70,79 190,205 379,394 566,567 50,43 94,84 139,123 49,39 95,78 140,115 91,72 182,142 270,205 89,63 177,122 262,177 88,51 170,94 253,134 165,80 323,136 467,166 35,7 69,13 105,16 34,4 68,6 104,6 66,0 132,-6 190,-19 245,-55 437,-221 561,-518 257,-562 224,-1425 -101,-2097zm1015 2205c-422,0 -765,342 -765,765 0,422 343,765 765,765 423,0 764,-343 764,-765 0,-423 -341,-765 -764,-765zm29304 -32090c33,180 78,344 139,488 58,143 128,267 216,371 178,204 421,325 736,336 306,17 638,-62 936,-226 150,-84 292,-190 422,-314 123,-124 234,-268 322,-430 381,-649 392,-1578 113,-2609 -35,-129 -74,-255 -109,-382 -20,-63 -39,-125 -55,-187 -21,-62 -44,-124 -63,-186 -79,-244 -160,-479 -241,-707 -81,-228 -164,-448 -235,-655 -35,-104 -71,-206 -104,-304 -33,-100 -67,-195 -95,-289 -66,-183 -120,-356 -168,-515 -9,-38 -19,-77 -32,-114 -9,-39 -22,-74 -35,-111 -24,-71 -44,-137 -63,-201 -81,-249 -150,-427 -246,-505 -164,-176 -465,160 -735,824 -16,40 -33,84 -51,128 -16,44 -32,88 -51,135 -35,95 -68,192 -100,293 -33,103 -64,209 -92,320 -16,57 -30,113 -45,169 -16,58 -31,118 -46,177 -58,239 -109,491 -152,759 -50,269 -88,549 -115,842 -33,292 -59,574 -76,845 -26,269 -38,526 -44,771 -6,243 -7,471 6,687 12,213 30,409 63,590zm6158 -264c-15,-132 -135,-164 -330,-101 -95,31 -214,88 -343,163 -66,39 -136,83 -207,133 -75,49 -151,103 -230,163 -162,118 -331,256 -514,414 -179,157 -364,333 -563,525 -195,191 -397,399 -597,623 -208,224 -417,460 -619,713 -834,1008 -1503,1860 -1830,2547 -167,344 -245,647 -213,911 26,258 164,479 432,649 506,342 1323,422 2011,68 88,-43 176,-94 261,-148 80,-57 160,-119 239,-188 156,-138 307,-302 447,-485 72,-94 137,-194 201,-298 64,-103 126,-211 184,-326 62,-114 119,-232 173,-358 54,-124 104,-251 153,-385 99,-265 191,-532 270,-795 40,-132 82,-262 120,-392 38,-127 80,-256 113,-381 67,-253 137,-496 207,-728 35,-117 63,-230 98,-339 30,-108 62,-217 96,-319 29,-105 62,-202 93,-298 14,-49 29,-95 44,-139 16,-47 31,-91 44,-135 57,-175 105,-335 153,-475 43,-140 75,-264 99,-368 20,-103 23,-186 8,-251zm-9662 5c30,109 66,236 101,373 11,34 18,70 27,105 9,38 17,74 26,111 16,77 31,157 46,237 17,83 32,168 48,257 15,87 30,178 41,271 20,187 42,383 63,587 29,410 63,850 99,1298 9,114 22,225 38,333 15,110 29,215 49,319 20,105 43,207 71,306 25,101 59,197 89,292 62,188 141,365 237,533 46,80 97,163 155,238 55,78 111,150 172,221 477,556 1233,900 1830,853 310,-16 528,-143 665,-359 133,-220 184,-532 164,-907 -53,-759 -404,-1785 -991,-2866 -149,-271 -304,-522 -463,-754 -162,-232 -326,-443 -490,-635 -162,-191 -329,-360 -490,-512 -162,-150 -313,-282 -461,-391 -73,-57 -143,-106 -211,-153 -70,-44 -137,-86 -198,-122 -126,-71 -238,-123 -334,-154 -189,-64 -311,-51 -334,49 -19,46 -19,108 -10,189 10,77 33,171 61,281zm8483 6701c-104,13 -224,46 -369,98 -139,53 -298,125 -478,212 -177,89 -368,194 -571,317 -202,122 -414,261 -639,415 -227,155 -461,322 -695,506 -238,181 -483,378 -728,591 -983,843 -1785,1560 -2217,2179 -111,155 -197,302 -258,445 -30,72 -55,143 -71,212 -10,33 -15,68 -20,101 -6,33 -9,68 -13,101 -15,261 83,502 320,719 443,428 1235,651 1970,428 94,-28 187,-61 279,-101 91,-39 180,-88 271,-140 177,-109 348,-242 518,-401 41,-39 85,-79 127,-121 39,-43 80,-85 120,-133 78,-91 158,-186 235,-288 78,-103 154,-208 229,-321 72,-112 143,-229 214,-352 282,-488 526,-987 752,-1454 109,-235 219,-463 323,-680 54,-109 102,-213 152,-316 50,-101 97,-202 148,-296 192,-384 366,-711 499,-972 66,-130 126,-245 161,-343 34,-100 53,-183 47,-248 7,-134 -104,-186 -306,-158zm-9302 2668c6,52 10,104 18,154 7,49 13,100 22,147 30,200 79,389 147,570 30,89 72,177 111,264 40,83 87,167 134,246 379,636 1069,1110 1663,1170 309,42 545,-45 716,-236 20,-24 40,-47 60,-76 18,-27 36,-55 51,-87 36,-59 63,-127 91,-200 48,-144 83,-313 106,-499 74,-756 -106,-1830 -505,-3000 -102,-295 -213,-571 -331,-826 -122,-258 -251,-497 -379,-714 -126,-218 -266,-417 -400,-593 -131,-178 -263,-334 -389,-471 -124,-134 -246,-248 -357,-342 -111,-92 -215,-165 -303,-212 -177,-97 -298,-105 -336,-14 -28,43 -40,105 -40,184 -3,79 3,178 12,292 20,223 60,514 60,849 4,82 6,170 6,258 0,90 0,182 -6,274 -9,189 -22,387 -34,591 -38,411 -77,849 -117,1299 -7,113 -13,225 -15,334 -5,109 -5,219 -5,325 2,105 11,210 20,313zm7346 3884c-101,-8 -228,4 -378,30 -73,13 -151,30 -237,50 -85,21 -176,45 -268,72 -189,54 -396,125 -617,209 -107,42 -222,86 -337,137 -117,47 -238,99 -363,156 -247,111 -500,236 -763,373 -268,137 -541,288 -814,454 -1106,654 -2015,1215 -2543,1748 -133,133 -243,263 -323,394 -43,65 -76,130 -103,195 -32,64 -54,129 -66,191 -59,257 0,512 196,768 370,501 1113,862 1872,771 98,-9 194,-26 291,-48 98,-21 193,-54 290,-91 191,-74 384,-174 576,-300 94,-63 192,-130 285,-207 91,-73 186,-154 279,-240 184,-174 368,-368 543,-584 89,-110 177,-217 264,-326 82,-108 167,-217 249,-326 159,-220 316,-437 465,-646 148,-212 291,-417 430,-610 142,-196 268,-380 397,-549 60,-87 120,-170 183,-248 57,-80 118,-155 171,-229 108,-144 209,-275 297,-391 87,-117 158,-218 213,-309 51,-91 84,-169 89,-235 30,-130 -73,-201 -278,-209zm-9494 2129c28,93 58,182 95,269 271,695 870,1287 1450,1452 294,93 539,49 739,-105 48,-42 97,-88 139,-140 44,-55 84,-114 120,-184 73,-132 135,-293 186,-473 197,-732 197,-1821 -5,-3048 -53,-307 -115,-598 -191,-874 -77,-274 -164,-531 -259,-771 -44,-118 -90,-230 -141,-340 -51,-111 -102,-216 -151,-315 -104,-199 -207,-377 -309,-533 -51,-79 -101,-152 -150,-219 -50,-66 -98,-127 -146,-183 -96,-111 -184,-200 -262,-263 -157,-129 -278,-158 -332,-74 -33,37 -53,95 -69,174 -16,78 -28,174 -35,287 -7,115 -16,245 -25,387 -6,72 -15,145 -22,223 -9,77 -22,158 -34,240 -35,335 -126,702 -217,1103 -53,196 -106,402 -159,613 -29,106 -56,212 -83,319 -31,108 -59,217 -85,327 -52,222 -100,436 -128,646 -15,106 -24,210 -30,314 -7,104 -16,203 -13,305 -3,199 19,394 54,584 17,96 38,188 63,279zm6500 3968c-100,-22 -224,-35 -375,-35 -153,-2 -326,7 -521,27 -392,42 -854,130 -1378,260 -129,33 -263,69 -400,108 -65,21 -133,39 -203,61 -69,20 -140,40 -211,64 -286,87 -577,189 -872,300 -1199,447 -2184,841 -2791,1271 -154,106 -283,217 -384,330 -50,58 -96,115 -137,173 -37,59 -70,118 -93,178 -99,242 -81,507 70,794 279,554 959,1047 1719,1090 193,16 393,5 595,-32 202,-39 407,-105 616,-194 104,-46 208,-95 313,-152 108,-56 208,-122 314,-189 107,-70 213,-143 318,-223 104,-79 214,-163 315,-254 844,-722 1562,-1526 2176,-2101 146,-148 293,-281 424,-404 135,-122 253,-233 357,-332 103,-101 194,-189 259,-268 67,-81 113,-151 130,-214 48,-125 -42,-214 -241,-258zm-8460 2377c279,146 526,149 747,28 54,-32 107,-68 162,-113 49,-45 100,-97 145,-158 94,-117 183,-265 261,-435 310,-684 490,-1756 490,-3002 0,-313 -20,-615 -47,-896 -9,-71 -16,-140 -26,-210 -10,-70 -18,-138 -31,-205 -19,-136 -45,-266 -70,-391 -104,-501 -252,-937 -402,-1281 -74,-171 -149,-321 -222,-447 -76,-128 -149,-231 -218,-306 -137,-155 -248,-205 -314,-132 -40,29 -70,83 -98,158 -31,73 -53,169 -81,277 -28,111 -54,238 -89,377 -34,137 -78,287 -129,447 -191,641 -558,1407 -922,2233 -43,105 -86,204 -127,307 -37,102 -73,204 -104,306 -31,102 -54,204 -82,304 -23,98 -44,198 -60,297 -35,199 -46,395 -44,587 2,191 25,383 68,567 156,737 648,1421 1193,1688zm4519 3098c-187,-81 -494,-141 -885,-168 -193,-15 -408,-21 -641,-16 -235,0 -488,8 -756,28 -131,8 -270,21 -410,34 -138,16 -284,30 -432,49 -146,18 -295,39 -445,62 -76,11 -152,24 -229,39 -76,13 -154,26 -235,39 -155,28 -309,57 -459,85 -73,16 -148,29 -218,44 -38,6 -74,14 -110,21 -35,8 -70,13 -105,21 -287,55 -555,114 -802,176 -501,116 -922,255 -1259,409 -169,78 -311,165 -431,259 -123,93 -219,192 -285,304 -138,222 -160,485 -58,793 91,299 284,599 546,847 132,124 281,237 445,328 160,91 337,163 521,209 377,98 794,96 1232,-9 110,-26 221,-58 333,-96 56,-17 113,-37 171,-59 58,-20 115,-45 170,-69 230,-100 466,-218 703,-357 234,-142 464,-292 690,-437 112,-72 220,-149 327,-222 108,-77 214,-152 318,-224 52,-35 103,-72 153,-107 29,-19 53,-36 79,-54 25,-19 48,-35 76,-54 98,-72 195,-141 293,-209 94,-67 187,-134 281,-195 91,-63 180,-124 268,-183 686,-478 1239,-758 1349,-993 70,-111 -6,-217 -195,-295zm-9536 -479c47,184 111,360 193,524 158,330 375,610 618,790 253,197 495,241 733,162 119,-42 235,-113 348,-211 115,-101 221,-231 327,-385 215,-306 399,-722 570,-1206 80,-246 153,-510 220,-785 11,-35 19,-71 29,-106 7,-36 15,-70 22,-105 16,-74 31,-148 46,-220 31,-148 58,-296 84,-450 12,-76 23,-151 34,-227 9,-75 19,-152 26,-225 18,-150 31,-294 38,-437 8,-144 16,-281 16,-418 0,-137 -6,-271 -10,-400 -13,-256 -34,-497 -66,-720 -33,-225 -76,-429 -122,-612 -91,-367 -203,-645 -310,-822 -109,-176 -211,-244 -289,-185 -177,87 -283,584 -596,1170 -291,599 -779,1285 -1267,2036 -123,184 -234,375 -329,564 -24,47 -45,94 -68,143 -23,46 -43,93 -64,139 -39,94 -75,189 -107,283 -124,382 -191,759 -162,1141 7,190 38,381 86,562zm4765 5172c-175,-113 -466,-226 -843,-322 -98,-24 -196,-46 -302,-70 -104,-21 -215,-41 -332,-62 -233,-40 -483,-77 -749,-105 -133,-16 -268,-26 -408,-39 -142,-11 -286,-23 -435,-30 -294,-16 -600,-20 -919,-25 -160,0 -315,0 -468,3 -75,2 -148,3 -220,3 -77,3 -150,3 -224,3 -288,3 -561,16 -813,30 -259,13 -496,36 -714,65 -55,7 -107,18 -160,25 -51,7 -104,17 -153,26 -100,18 -195,39 -283,63 -89,24 -171,50 -251,80 -78,28 -151,63 -217,96 -136,69 -244,152 -331,248 -83,99 -144,210 -174,340 -32,127 -38,270 -13,432 41,312 183,641 402,934 218,292 516,547 865,701 176,82 368,140 572,176 100,19 206,32 313,36 106,7 214,5 328,0 224,-12 460,-43 703,-99 243,-57 493,-133 751,-228 510,-196 1003,-413 1458,-631 116,-54 230,-105 342,-157 108,-52 214,-104 317,-153 213,-101 415,-192 608,-274 186,-89 366,-164 527,-233 167,-68 316,-127 446,-187 258,-116 445,-214 517,-318 87,-100 34,-214 -140,-328zm-8736 -735c108,115 219,200 338,248 113,46 235,59 357,41 124,-19 250,-67 379,-145 62,-37 126,-85 190,-140 65,-53 129,-114 194,-180 62,-68 128,-140 192,-218 33,-39 65,-80 96,-123 29,-42 64,-87 93,-133 127,-183 251,-389 375,-614 118,-223 237,-471 348,-734 28,-63 57,-130 85,-198 26,-67 54,-137 79,-206 54,-140 104,-283 155,-431 101,-289 179,-580 243,-858 30,-138 58,-275 81,-409 24,-132 40,-266 57,-393 31,-257 46,-500 55,-723 0,-111 0,-221 -4,-325 -5,-105 -9,-204 -20,-299 -31,-378 -96,-675 -172,-865 -78,-192 -169,-279 -253,-235 -96,29 -189,158 -308,349 -58,97 -129,205 -205,321 -78,120 -164,246 -263,378 -386,537 -978,1124 -1583,1778 -151,158 -290,326 -411,496 -124,166 -236,338 -332,514 -45,86 -85,176 -126,267 -38,89 -70,178 -100,269 -58,181 -100,367 -120,559 -42,378 -4,764 97,1116 104,354 269,669 483,893zm2482 4041c-716,-325 -1793,-663 -3042,-891 -627,-111 -1202,-213 -1707,-272 -257,-32 -494,-54 -714,-64 -57,-2 -108,-3 -162,-6 -53,-1 -104,-1 -154,-1 -101,0 -200,4 -291,11 -182,13 -347,46 -487,88 -145,45 -269,107 -367,186 -201,162 -308,401 -312,727 -9,313 74,664 241,992 84,163 189,320 313,466 122,144 265,271 425,380 159,113 338,206 534,278 96,35 196,68 300,92 107,24 215,43 326,58 224,28 461,41 710,30 246,-13 506,-43 775,-91 536,-100 1058,-224 1544,-359 121,-30 241,-62 359,-93 115,-30 229,-64 343,-93 224,-62 439,-116 640,-160 200,-53 387,-99 562,-138 86,-18 168,-34 244,-52 79,-15 155,-33 223,-51 273,-67 473,-130 564,-223 101,-80 63,-203 -89,-347 -151,-142 -419,-304 -778,-467zm-7706 -1828c175,275 388,400 635,410 126,3 258,-20 398,-75 138,-53 282,-139 429,-245 76,-55 152,-114 227,-181 38,-33 76,-66 114,-102 41,-36 79,-75 117,-114 153,-160 310,-340 470,-536 308,-407 621,-884 911,-1426 590,-1085 840,-2134 903,-2890 28,-378 13,-681 -30,-883 -46,-202 -121,-305 -212,-277 -98,11 -209,122 -358,290 -39,42 -79,85 -120,131 -46,47 -88,96 -137,146 -96,104 -199,214 -318,326 -470,456 -1147,930 -1850,1463 -175,132 -341,270 -488,416 -152,145 -289,290 -410,448 -60,78 -117,157 -167,238 -53,83 -104,163 -146,248 -88,167 -160,345 -211,531 -50,179 -83,369 -94,558 -16,187 -13,376 7,560 42,365 157,706 330,964zm1780 4428c-80,-56 -166,-114 -261,-170 -45,-30 -91,-58 -142,-88 -47,-29 -98,-59 -151,-91 -202,-120 -426,-242 -667,-363 -121,-61 -246,-120 -373,-181 -129,-63 -261,-123 -401,-182 -133,-61 -272,-119 -417,-176 -69,-31 -143,-58 -215,-85 -75,-31 -148,-60 -222,-87 -151,-58 -298,-113 -440,-166 -73,-25 -143,-50 -215,-75 -32,-13 -67,-25 -103,-37 -33,-13 -68,-26 -104,-39 -273,-98 -530,-186 -776,-259 -60,-18 -124,-36 -182,-56 -58,-18 -118,-34 -177,-52 -114,-31 -225,-60 -333,-85 -106,-24 -210,-44 -312,-60 -98,-19 -193,-34 -284,-44 -185,-18 -350,-20 -499,0 -35,7 -73,13 -106,21 -35,7 -69,15 -100,25 -67,18 -127,44 -183,73 -223,122 -369,337 -422,660 -124,618 100,1444 662,1985 139,142 300,264 480,373 177,101 377,186 592,256 430,143 928,201 1471,208 1089,0 2129,-143 2955,-177 206,-18 400,-26 573,-33 177,-6 340,-9 481,-18 280,-19 485,-43 592,-119 111,-58 95,-187 -31,-356 -126,-168 -364,-375 -690,-602zm-6732 -2665c64,13 126,19 195,19 33,0 66,-2 101,-6 36,-3 71,-9 109,-16 144,-30 299,-86 465,-166 81,-40 165,-83 251,-134 85,-55 173,-114 262,-177 89,-63 180,-133 271,-205 46,-37 93,-76 139,-115 45,-39 93,-80 139,-123 185,-173 377,-362 566,-567 22,-26 47,-52 71,-79 26,-25 48,-52 71,-78 48,-57 95,-112 144,-168 93,-112 190,-230 286,-348 45,-59 91,-121 135,-180 44,-60 89,-120 129,-182 86,-120 166,-243 239,-361 75,-121 144,-239 210,-355 65,-118 126,-237 181,-353 112,-229 202,-451 281,-660 21,-52 38,-103 55,-155 18,-52 36,-101 49,-151 30,-100 58,-196 81,-288 92,-367 128,-669 115,-875 -10,-208 -68,-323 -161,-312 -99,-5 -230,84 -405,221 -83,70 -184,144 -295,230 -109,83 -233,173 -369,261 -536,365 -1285,712 -2063,1110 -391,195 -738,430 -1029,690 -144,131 -275,273 -388,427 -115,148 -214,310 -294,481 -324,672 -359,1535 -101,2097 129,297 318,463 560,518zm-33224 -31845c126,124 272,230 419,314 300,164 631,243 935,226 319,-11 559,-132 738,-336 87,-104 159,-228 217,-371 59,-144 105,-308 140,-488 30,-181 47,-377 62,-590 13,-216 11,-444 4,-687 -4,-245 -19,-502 -41,-771 -18,-271 -46,-553 -77,-845 -29,-293 -65,-573 -114,-842 -45,-268 -94,-520 -155,-759 -14,-59 -29,-119 -43,-177 -14,-56 -30,-112 -45,-169 -31,-111 -60,-217 -93,-320 -34,-101 -67,-198 -100,-293 -19,-47 -35,-91 -52,-135 -16,-44 -33,-88 -50,-128 -269,-664 -572,-1000 -737,-824 -94,78 -165,256 -246,505 -19,64 -40,130 -63,201 -10,37 -21,72 -33,111 -12,37 -22,76 -35,114 -46,159 -101,332 -166,515 -29,94 -61,189 -95,289 -33,98 -68,200 -105,304 -71,207 -154,427 -235,655 -77,228 -160,463 -241,707 -22,62 -40,124 -59,186 -19,62 -38,124 -56,187 -36,127 -74,253 -109,382 -279,1031 -271,1960 112,2609 88,162 199,306 323,430zm-2637 2906c80,263 176,530 271,795 49,134 98,261 153,385 55,126 112,244 171,358 60,115 123,223 187,326 65,104 130,204 199,298 142,183 290,347 448,485 79,69 159,131 242,188 81,54 171,105 257,148 689,354 1506,274 2011,-68 269,-170 406,-391 432,-649 32,-264 -46,-567 -214,-911 -323,-687 -994,-1539 -1826,-2547 -205,-253 -416,-489 -619,-713 -202,-224 -402,-432 -598,-623 -199,-192 -384,-368 -565,-525 -180,-158 -351,-296 -511,-414 -80,-60 -158,-114 -230,-163 -74,-50 -142,-94 -209,-133 -131,-75 -245,-132 -345,-163 -193,-63 -312,-31 -329,101 -14,65 -11,148 9,251 21,104 56,228 101,368 44,140 95,300 152,475 14,44 27,88 42,135 15,44 33,90 47,139 30,96 61,193 92,298 32,102 65,211 97,319 32,109 64,222 98,339 67,232 136,475 206,728 34,125 74,254 114,381 39,130 78,260 117,392zm4832 2155c137,216 355,343 666,359 595,47 1350,-297 1829,-853 60,-71 118,-143 174,-221 55,-75 106,-158 155,-238 93,-168 171,-345 233,-533 33,-95 64,-191 90,-292 29,-99 50,-201 71,-306 20,-104 38,-209 50,-319 16,-108 29,-219 39,-333 35,-448 68,-888 100,-1298 20,-204 40,-400 64,-587 8,-93 23,-184 39,-271 13,-89 30,-174 47,-257 15,-80 30,-160 46,-237 7,-37 18,-73 24,-111 9,-35 20,-71 28,-105 38,-137 70,-264 100,-373 30,-110 52,-204 61,-281 11,-81 11,-143 -9,-189 -23,-100 -145,-113 -335,-49 -95,31 -206,83 -332,154 -63,36 -127,78 -197,122 -67,47 -140,96 -212,153 -146,109 -301,241 -461,391 -161,152 -329,321 -492,512 -163,192 -328,403 -491,635 -158,232 -311,483 -459,754 -586,1081 -941,2107 -990,2866 -24,375 27,687 162,907zm-2736 5545c75,113 150,218 228,321 78,102 156,197 238,288 39,48 80,90 120,133 40,42 84,82 124,121 168,159 344,292 520,401 88,52 178,101 269,140 92,40 187,73 279,101 736,223 1528,0 1970,-428 236,-217 334,-458 320,-719 -1,-33 -7,-68 -12,-101 -5,-33 -13,-68 -19,-101 -18,-69 -41,-140 -71,-212 -61,-143 -149,-290 -260,-445 -432,-619 -1233,-1336 -2218,-2179 -243,-213 -489,-410 -726,-591 -236,-184 -469,-351 -693,-506 -227,-154 -438,-293 -642,-415 -203,-123 -395,-228 -571,-317 -179,-87 -337,-159 -481,-212 -141,-52 -265,-85 -365,-98 -202,-28 -315,24 -308,158 -5,65 13,148 49,248 37,98 93,213 160,343 132,261 309,588 499,972 49,94 100,195 149,296 51,103 98,207 153,316 104,217 211,445 322,680 228,467 469,966 752,1454 69,123 140,240 214,352zm6195 -6302c-125,137 -255,293 -390,471 -131,176 -270,375 -398,593 -130,217 -258,456 -380,714 -119,255 -228,531 -331,826 -399,1170 -576,2244 -503,3000 20,186 54,355 106,499 26,73 55,141 88,200 16,32 35,60 54,87 19,29 39,52 60,76 172,191 407,278 717,236 593,-60 1281,-534 1661,-1170 48,-79 94,-163 136,-246 41,-87 78,-175 111,-264 67,-181 114,-370 146,-570 7,-47 14,-98 20,-147 7,-50 13,-102 18,-154 12,-103 18,-208 21,-313 3,-106 0,-216 -3,-325 -4,-109 -7,-221 -18,-334 -39,-450 -78,-888 -115,-1299 -14,-204 -26,-402 -35,-591 -5,-92 -5,-184 -5,-274 0,-88 1,-176 5,-258 -1,-335 40,-626 60,-849 12,-114 14,-213 13,-292 -1,-79 -13,-141 -39,-184 -39,-91 -162,-83 -340,14 -86,47 -189,120 -300,212 -111,94 -235,208 -359,342zm-3205 12697c90,86 186,167 279,240 93,77 189,144 285,207 191,126 383,226 575,300 95,37 193,70 290,91 98,22 193,39 290,48 761,91 1504,-270 1870,-771 198,-256 257,-511 199,-768 -14,-62 -37,-127 -65,-191 -27,-65 -62,-130 -102,-195 -84,-131 -194,-261 -327,-394 -528,-533 -1435,-1094 -2543,-1748 -273,-166 -546,-317 -812,-454 -263,-137 -519,-262 -765,-373 -123,-57 -246,-109 -361,-156 -115,-51 -228,-95 -338,-137 -220,-84 -427,-155 -616,-209 -94,-27 -184,-51 -269,-72 -85,-20 -165,-37 -238,-50 -147,-26 -274,-38 -377,-30 -205,8 -306,79 -278,209 7,66 39,144 90,235 54,91 126,192 214,309 87,116 185,247 296,391 55,74 114,149 174,229 58,78 119,161 181,248 127,169 256,353 396,549 137,193 280,398 427,610 152,209 308,426 469,646 80,109 163,218 250,326 86,109 172,216 260,326 173,216 361,410 546,584zm4195 -6407c-92,240 -180,497 -258,771 -74,276 -139,567 -190,874 -203,1227 -203,2316 -6,3048 50,180 110,341 186,473 36,70 75,129 118,184 45,52 91,98 140,140 199,154 444,198 742,105 575,-165 1176,-757 1448,-1452 35,-87 67,-176 93,-269 26,-91 49,-183 66,-279 37,-190 52,-385 52,-584 0,-102 -4,-201 -10,-305 -7,-104 -19,-208 -32,-314 -30,-210 -76,-424 -128,-646 -28,-110 -55,-219 -84,-327 -29,-107 -59,-213 -82,-319 -55,-211 -109,-417 -160,-613 -95,-401 -182,-768 -219,-1103 -13,-82 -24,-163 -33,-240 -10,-78 -19,-151 -23,-223 -9,-142 -18,-272 -26,-387 -7,-113 -16,-209 -33,-287 -16,-79 -37,-137 -70,-174 -54,-84 -173,-55 -330,74 -79,63 -169,152 -264,263 -46,56 -97,117 -146,183 -49,67 -98,140 -150,219 -101,156 -204,334 -306,533 -52,99 -103,204 -152,315 -50,110 -96,222 -143,340zm-174 12085c105,57 210,106 314,152 208,89 412,155 614,194 205,37 403,48 598,32 759,-43 1439,-536 1715,-1090 154,-287 171,-552 73,-794 -26,-60 -56,-119 -95,-178 -37,-58 -84,-115 -136,-173 -102,-113 -229,-224 -382,-330 -608,-430 -1594,-824 -2791,-1271 -297,-111 -589,-213 -872,-300 -73,-24 -142,-44 -212,-64 -68,-22 -137,-40 -205,-61 -136,-39 -269,-75 -400,-108 -523,-130 -987,-218 -1376,-260 -193,-20 -370,-29 -520,-27 -150,0 -277,13 -377,35 -199,44 -290,133 -239,258 17,63 60,133 128,214 67,79 156,167 260,268 104,99 222,210 353,332 134,123 278,256 430,404 613,575 1330,1379 2172,2101 105,91 211,175 317,254 106,80 212,153 318,223 104,67 207,133 313,189zm3353 -2109c46,61 97,113 149,158 52,45 104,81 159,113 220,121 469,118 748,-28 543,-267 1034,-951 1193,-1688 42,-184 63,-376 65,-567 6,-192 -7,-388 -40,-587 -18,-99 -38,-199 -62,-297 -24,-100 -52,-202 -82,-304 -33,-102 -69,-204 -107,-306 -37,-103 -80,-202 -126,-307 -361,-826 -728,-1592 -920,-2233 -51,-160 -93,-310 -132,-447 -32,-139 -57,-266 -85,-377 -26,-108 -54,-204 -81,-277 -28,-75 -61,-129 -99,-158 -66,-73 -179,-23 -314,132 -67,75 -139,178 -215,306 -74,126 -150,276 -224,447 -150,344 -299,780 -401,1281 -26,125 -51,255 -73,391 -11,67 -21,135 -31,205 -9,70 -16,139 -23,210 -29,281 -48,583 -48,896 -2,1246 176,2318 491,3002 76,170 165,318 258,435zm1553 6895c437,105 855,107 1229,9 185,-46 361,-118 526,-209 161,-91 310,-204 442,-328 262,-248 455,-548 546,-847 104,-308 79,-571 -56,-793 -71,-112 -164,-211 -284,-304 -120,-94 -265,-181 -434,-259 -336,-154 -758,-293 -1259,-409 -247,-62 -512,-121 -798,-176 -36,-8 -73,-13 -109,-21 -35,-7 -73,-15 -107,-21 -72,-15 -146,-28 -221,-44 -149,-28 -301,-57 -461,-85 -77,-13 -155,-26 -233,-39 -75,-15 -151,-28 -228,-39 -151,-23 -301,-44 -448,-62 -147,-19 -291,-33 -430,-49 -142,-13 -277,-26 -410,-34 -267,-20 -521,-28 -757,-28 -230,-5 -448,1 -644,16 -388,27 -694,87 -881,168 -189,78 -263,184 -196,295 113,235 665,515 1351,993 86,59 176,120 268,183 92,61 186,128 281,195 96,68 194,137 294,209 24,19 50,35 74,54 26,18 52,35 76,54 52,35 104,72 156,107 104,72 209,147 318,224 109,73 216,150 330,222 224,145 452,295 687,437 239,139 474,257 700,357 58,24 117,49 173,69 58,22 113,42 172,59 111,38 222,70 333,96zm1266 -6477c9,73 18,150 29,225 9,76 22,151 34,227 28,154 57,302 85,450 15,72 30,146 45,220 8,35 15,69 25,105 6,35 15,71 22,106 72,275 145,539 228,785 167,484 354,900 567,1206 105,154 211,284 326,385 113,98 230,169 348,211 236,79 479,35 732,-162 246,-180 461,-460 622,-790 77,-164 143,-340 191,-524 46,-181 78,-372 87,-562 24,-382 -38,-759 -163,-1141 -32,-94 -68,-189 -108,-283 -20,-46 -41,-93 -64,-139 -22,-49 -45,-96 -68,-143 -94,-189 -202,-380 -326,-564 -487,-751 -978,-1437 -1271,-2036 -308,-586 -418,-1083 -595,-1170 -77,-59 -179,9 -287,185 -109,177 -220,455 -311,822 -48,183 -89,387 -123,612 -29,223 -52,464 -64,720 -9,129 -9,263 -9,400 0,137 6,274 15,418 6,143 20,287 33,437zm4346 10224c109,-4 212,-17 313,-36 205,-36 395,-94 571,-176 352,-154 648,-409 866,-701 220,-293 359,-622 398,-934 26,-162 24,-305 -9,-432 -32,-130 -91,-241 -174,-340 -86,-96 -197,-179 -332,-248 -68,-33 -139,-68 -217,-96 -76,-30 -160,-56 -251,-80 -88,-24 -182,-45 -283,-63 -51,-9 -98,-19 -154,-26 -50,-7 -104,-18 -159,-25 -217,-29 -455,-52 -711,-65 -256,-14 -528,-27 -819,-30 -73,0 -144,0 -217,-3 -75,0 -149,-1 -224,-3 -153,-3 -310,-3 -466,-3 -321,5 -627,9 -922,25 -148,7 -291,19 -432,30 -142,13 -279,23 -410,39 -266,28 -519,65 -749,105 -117,21 -227,41 -331,62 -106,24 -206,46 -301,70 -379,96 -670,209 -843,322 -174,114 -228,228 -145,328 75,104 261,202 520,318 127,60 282,119 443,187 164,69 344,144 531,233 190,82 394,173 603,274 108,49 214,101 325,153 111,52 222,103 335,157 459,218 951,435 1463,631 257,95 507,171 747,228 245,56 481,87 705,99 111,5 222,7 329,0zm-384 -7836c15,127 33,261 55,393 26,134 53,271 83,409 64,278 139,569 243,858 49,148 102,291 155,431 25,69 53,139 82,206 27,68 54,135 82,198 111,263 227,511 350,734 120,225 244,431 371,614 33,46 62,91 96,133 32,43 63,84 96,123 63,78 129,150 195,218 63,66 126,127 189,180 66,55 129,103 193,140 128,78 253,126 376,145 127,18 242,5 361,-41 114,-48 227,-133 334,-248 215,-224 382,-539 483,-893 104,-352 142,-738 95,-1116 -17,-192 -57,-378 -116,-559 -30,-91 -65,-180 -103,-269 -38,-91 -80,-181 -127,-267 -93,-176 -204,-348 -329,-514 -121,-170 -260,-338 -411,-496 -604,-654 -1197,-1241 -1583,-1778 -100,-132 -184,-258 -262,-378 -79,-116 -148,-224 -205,-321 -120,-191 -215,-320 -309,-349 -86,-44 -175,43 -252,235 -80,190 -142,487 -175,865 -7,95 -12,194 -18,299 -1,104 -5,214 0,325 6,223 21,466 51,723zm6504 10428c195,-72 374,-165 534,-278 162,-109 301,-236 427,-380 123,-146 227,-303 310,-466 168,-328 250,-679 241,-992 -4,-326 -115,-565 -311,-727 -101,-79 -223,-141 -366,-186 -145,-42 -306,-75 -489,-88 -93,-7 -189,-11 -290,-11 -51,0 -102,0 -155,1 -52,3 -105,4 -162,6 -218,10 -457,32 -712,64 -508,59 -1082,161 -1707,272 -1251,228 -2330,566 -3046,891 -357,163 -625,325 -776,467 -155,144 -189,267 -88,347 91,93 288,156 564,223 67,18 142,36 222,51 78,18 160,34 246,52 173,39 361,85 560,138 203,44 418,98 643,160 111,29 225,63 342,93 118,31 236,63 360,93 483,135 1006,259 1542,359 269,48 530,78 776,91 248,11 486,-2 708,-30 111,-15 221,-34 325,-58 102,-24 203,-57 302,-92zm-1322 -5991c293,542 604,1019 918,1426 156,196 313,376 468,536 38,39 75,78 113,114 38,36 78,69 115,102 77,67 153,126 227,181 148,106 292,192 432,245 139,55 270,78 393,75 249,-10 464,-135 638,-410 175,-258 286,-599 328,-964 23,-184 29,-373 13,-560 -15,-189 -48,-379 -101,-558 -50,-186 -121,-364 -207,-531 -46,-85 -93,-165 -144,-248 -53,-81 -111,-160 -170,-238 -121,-158 -257,-303 -407,-448 -152,-146 -314,-284 -490,-416 -701,-533 -1380,-1007 -1848,-1463 -119,-112 -227,-222 -321,-326 -49,-50 -94,-99 -136,-146 -43,-46 -80,-89 -118,-131 -148,-168 -265,-279 -360,-290 -94,-28 -167,75 -212,277 -44,202 -60,505 -28,883 58,756 313,1805 897,2890zm8188 4520c-56,-29 -117,-55 -180,-73 -35,-10 -67,-18 -103,-25 -36,-8 -72,-14 -106,-21 -150,-20 -314,-18 -498,0 -91,10 -188,25 -289,44 -95,16 -199,36 -309,60 -107,25 -218,54 -333,85 -60,18 -116,34 -176,52 -59,20 -119,38 -183,56 -243,73 -502,161 -778,259 -33,13 -69,26 -104,39 -33,12 -69,24 -103,37 -71,25 -143,50 -210,75 -144,53 -291,108 -441,166 -75,27 -149,56 -222,87 -73,27 -145,54 -217,85 -144,57 -284,115 -420,176 -133,59 -268,119 -396,182 -129,61 -253,120 -375,181 -240,121 -462,243 -669,363 -51,32 -98,62 -149,91 -49,30 -97,58 -142,88 -94,56 -181,114 -260,170 -327,227 -564,434 -691,602 -126,169 -141,298 -28,356 104,76 309,100 593,119 138,9 300,12 477,18 177,7 370,15 574,33 823,34 1865,177 2955,177 543,-7 1038,-65 1468,-208 217,-70 415,-155 594,-256 180,-109 339,-231 481,-373 561,-541 785,-1367 665,-1985 -57,-323 -201,-538 -425,-660z"/>
  <path class="fil1" d="M76675 20156l-321 -3017 -3286 0 -339 -4394 -5964 0c-2409,-2660 -8286,-8239 -15210,-8239 -520,0 -1035,33 -1549,97 -508,-64 -1029,-97 -1547,-97 -6924,0 -12801,5579 -15210,8239l-5964 0 -337 4394 -3285 0 -325 3017c-1340,12522 2551,24775 11258,35434 6492,7951 13352,12217 13641,12396l1769 1090 1772 -1090c288,-179 7146,-4445 13640,-12396 8707,-10659 12600,-22912 11257,-35434z"/>
  <path class="fil1" d="M29064 95411l-685 0c-179,-545 -316,-883 -412,-1011 -96,-127 -251,-192 -463,-192 -90,0 -175,1 -258,2 0,396 8,798 22,1201l-644 0c20,-466 31,-990 31,-1575 0,-562 -11,-1042 -31,-1439l400 0c46,0 143,-1 291,-6 148,-4 283,-7 409,-7 708,0 1061,242 1061,727 0,384 -202,652 -606,803l0 34c156,44 293,165 410,365 117,201 276,566 475,1098zm-868 -2129c0,-307 -198,-459 -593,-459 -144,0 -273,9 -384,31 17,239 25,551 25,935 85,3 157,4 215,4 491,0 737,-170 737,-511z"/>
  <path id="1" class="fil1" d="M31436 94902l-19 509 -1970 0c20,-466 30,-990 30,-1575 0,-562 -10,-1042 -30,-1439l1879 0 -25 508c-463,-25 -883,-38 -1259,-38 15,215 22,468 22,760 323,0 668,-8 1035,-25l0 483c-360,-15 -705,-22 -1035,-22 0,311 8,606 19,878 423,0 873,-13 1353,-39z"/>
  <path id="2" class="fil1" d="M32601 95411l-655 0c20,-478 31,-1003 31,-1575 0,-563 -11,-1043 -31,-1439l655 0c-20,390 -30,868 -30,1439 0,581 10,1107 30,1575z"/>
  <path id="3" class="fil1" d="M35750 95411l-570 0c0,-63 -213,-396 -637,-1002 -444,-637 -698,-1073 -759,-1308l-37 0c38,339 58,644 58,917 0,381 11,845 32,1393l-569 0c23,-478 35,-1003 35,-1575 0,-563 -12,-1043 -35,-1439l687 0c0,83 190,409 572,981 405,606 639,1017 699,1233l34 0c-37,-344 -55,-653 -55,-926 0,-418 -11,-847 -32,-1288l577 0c-21,384 -32,863 -32,1439 0,580 11,1104 32,1575z"/>
  <path id="4" class="fil1" d="M38334 92397l-21 508c-482,-25 -918,-38 -1307,-38 20,265 29,557 29,878 298,0 637,-7 1014,-24l0 480c-382,-14 -721,-21 -1014,-21 0,437 7,848 22,1231l-639 0c20,-466 30,-990 30,-1575 0,-562 -10,-1042 -30,-1439l1916 0z"/>
  <path id="5" class="fil1" d="M41534 93849c0,474 -144,867 -435,1179 -290,310 -648,466 -1076,466 -407,0 -748,-143 -1022,-429 -276,-285 -413,-649 -413,-1091 0,-474 146,-866 435,-1179 291,-310 650,-466 1077,-466 406,0 748,143 1023,429 274,284 411,649 411,1091zm-638 67c0,-322 -82,-583 -248,-784 -165,-201 -370,-301 -610,-301 -226,0 -417,101 -574,303 -159,202 -237,457 -237,767 0,320 83,581 248,783 167,201 370,301 611,301 224,0 416,-100 574,-303 157,-204 236,-459 236,-766z"/>
  <path id="6" class="fil1" d="M44486 95411l-686 0c-179,-545 -316,-883 -412,-1011 -95,-127 -250,-192 -463,-192 -89,0 -174,1 -257,2 0,396 7,798 21,1201l-644 0c20,-466 31,-990 31,-1575 0,-562 -11,-1042 -31,-1439l401 0c46,0 143,-1 290,-6 148,-4 284,-7 409,-7 709,0 1062,242 1062,727 0,384 -202,652 -606,803l0 34c156,44 293,165 410,365 117,201 275,566 475,1098zm-869 -2129c0,-307 -198,-459 -592,-459 -145,0 -273,9 -384,31 16,239 24,551 24,935 86,3 158,4 215,4 492,0 737,-170 737,-511z"/>
  <path id="7" class="fil1" d="M47025 94863l-39 532c-220,53 -435,79 -649,79 -529,0 -931,-146 -1209,-438 -276,-293 -415,-649 -415,-1067 0,-433 148,-811 441,-1131 294,-321 697,-481 1209,-481 189,0 367,21 534,64l-80 535c-182,-59 -356,-89 -523,-89 -313,0 -546,101 -698,299 -154,197 -229,438 -229,722 0,290 91,542 271,755 182,213 435,320 762,320 193,0 400,-33 625,-100z"/>
  <path id="8" class="fil1" d="M48141 95411l-656 0c21,-478 31,-1003 31,-1575 0,-563 -10,-1043 -31,-1439l656 0c-20,390 -31,868 -31,1439 0,581 11,1107 31,1575z"/>
  <path id="9" class="fil1" d="M51290 95411l-571 0c0,-63 -212,-396 -636,-1002 -444,-637 -698,-1073 -760,-1308l-36 0c37,339 57,644 57,917 0,381 11,845 32,1393l-569 0c24,-478 36,-1003 36,-1575 0,-563 -12,-1043 -36,-1439l687 0c0,83 191,409 572,981 405,606 639,1017 699,1233l35 0c-37,-344 -56,-653 -56,-926 0,-418 -11,-847 -32,-1288l578 0c-22,384 -32,863 -32,1439 0,580 10,1104 32,1575z"/>
  <path id="10" class="fil1" d="M54342 95332c-368,95 -675,142 -923,142 -530,0 -933,-145 -1206,-436 -274,-290 -411,-643 -411,-1059 0,-436 150,-816 448,-1139 299,-322 712,-483 1241,-483 249,0 468,21 658,66l-77 547c-242,-64 -459,-95 -653,-95 -325,0 -568,100 -727,300 -162,199 -241,444 -241,733 0,294 90,550 269,770 180,220 428,328 744,328 88,0 189,-8 306,-28 -24,-171 -35,-339 -35,-504 0,-166 -17,-355 -49,-561l656 0c-13,236 -19,476 -19,717 0,173 6,408 19,702z"/>
  <path id="11" class="fil1" d="M58477 93800c0,439 -141,821 -422,1149 -281,327 -674,490 -1180,490 -229,0 -543,-10 -945,-28 20,-466 31,-990 31,-1575 0,-562 -11,-1042 -31,-1439l405 0c68,0 166,-1 297,-6 131,-4 216,-7 257,-7 557,0 960,140 1211,417 251,278 377,611 377,999zm-632 101c0,-297 -88,-547 -260,-750 -173,-202 -436,-304 -791,-304 -67,0 -157,7 -273,20 15,310 22,632 22,969 0,368 8,735 24,1097 100,19 201,30 300,30 332,0 577,-104 738,-309 159,-206 240,-458 240,-753z"/>
  <path id="12" class="fil1" d="M61427 95411l-685 0c-180,-545 -317,-883 -412,-1011 -96,-127 -251,-192 -463,-192 -90,0 -175,1 -258,2 0,396 7,798 22,1201l-644 0c20,-466 31,-990 31,-1575 0,-562 -11,-1042 -31,-1439l400 0c46,0 143,-1 291,-6 147,-4 283,-7 408,-7 709,0 1062,242 1062,727 0,384 -202,652 -606,803l0 34c156,44 293,165 410,365 117,201 275,566 475,1098zm-868 -2129c0,-307 -199,-459 -593,-459 -144,0 -273,9 -384,31 17,239 25,551 25,935 85,3 157,4 215,4 491,0 737,-170 737,-511z"/>
  <path id="13" class="fil1" d="M63799 94902l-19 509 -1970 0c20,-466 30,-990 30,-1575 0,-562 -10,-1042 -30,-1439l1879 0 -25 508c-463,-25 -883,-38 -1259,-38 15,215 22,468 22,760 323,0 668,-8 1035,-25l0 483c-360,-15 -705,-22 -1035,-22 0,311 7,606 19,878 423,0 873,-13 1353,-39z"/>
  <path id="14" class="fil1" d="M66936 95411l-741 0c0,-101 -70,-389 -210,-865l-1069 0c-145,467 -219,756 -219,865l-696 0c0,-60 180,-553 541,-1481 360,-927 539,-1437 539,-1533l875 0c0,89 163,592 489,1511 328,919 491,1420 491,1503zm-1069 -1307c-264,-796 -396,-1227 -396,-1291l-37 0c0,59 -137,490 -409,1291l842 0z"/>
  <path id="15" class="fil1" d="M70773 95411l-673 0c0,-262 -17,-705 -49,-1327 -33,-622 -49,-1011 -51,-1165l-34 0c-16,93 -58,264 -124,514 -65,251 -190,618 -373,1104 -183,487 -274,779 -274,874l-511 0c0,-99 -88,-392 -264,-881 -175,-489 -289,-832 -344,-1028 -53,-195 -96,-390 -128,-583l-36 0c-1,193 -20,606 -56,1241 -37,634 -54,1051 -54,1251l-611 0c0,-46 55,-510 167,-1391 113,-881 168,-1422 168,-1623l897 0c0,174 93,555 283,1145 189,589 282,966 282,1131l36 0c0,-166 107,-544 322,-1134 216,-589 324,-969 324,-1142l888 0c0,320 35,891 107,1711 72,819 108,1254 108,1303z"/>
  <path id="16" class="fil1" d="M73357 94589c0,604 -435,905 -1300,905 -296,0 -570,-34 -822,-105l113 -517c250,87 486,130 709,130 245,0 424,-24 531,-71 108,-49 163,-129 163,-241 0,-118 -52,-217 -153,-297 -88,-70 -267,-164 -535,-278 -244,-104 -426,-219 -544,-342 -148,-156 -224,-348 -224,-576 0,-266 98,-472 294,-622 197,-150 480,-225 849,-225 303,0 557,25 762,76l-86 513c-208,-75 -434,-112 -676,-112 -365,0 -545,97 -545,291 0,104 41,188 126,253 74,55 236,133 484,233 264,107 461,224 592,351 175,171 262,384 262,634z"/>
  <rect class="fil3" width="99999" height="99999"/>
  <path class="fil4" d="M49975 54305c-68,-170 -5990,-1482 -8168,-1852 -1762,-299 -3247,-116 -3249,-2297 -5,-3345 -50,-6709 8,-10050 25,-1410 -931,-1244 -2163,-1244 -81,383 0,9663 0,10930 0,2909 387,3090 3527,3183 3658,64 8742,1019 10064,1369l0 7 13 -3 12 3 0 -7c1322,-350 6407,-1305 10064,-1369 3140,-93 3527,-274 3527,-3183 0,-1267 81,-10547 0,-10930 -1231,0 -2188,-166 -2163,1244 58,3341 13,6705 10,10050 -4,2181 -1489,1998 -3251,2297 -2178,370 -8100,1682 -8168,1852 82,-92 314,-201 642,-347 1444,-644 4970,-1621 7115,-2264 1086,-326 2049,-508 2189,-1836l7 -11685c0,-567 -38,-917 -65,-944 -350,-350 -2211,269 -2815,673l65 10395c9,1340 -15,2080 -1304,2662 -1513,683 -3831,2011 -5070,2792 -397,251 -678,426 -777,473l-6 -8c-4,-13 -8,-24 -12,-36 -5,12 -9,23 -13,36l-6 8c-99,-47 -380,-222 -776,-473 -1240,-781 -3558,-2109 -5071,-2792 -1289,-582 -1311,-1322 -1303,-2662l64 -10395c-604,-404 -2464,-1023 -2814,-673 -28,27 -66,377 -65,944l6 11685c140,1328 1103,1510 2189,1836 2145,643 5671,1620 7115,2264 329,146 561,255 642,347zm32 -24248c1498,0 2712,1215 2712,2712 0,1498 -1214,2712 -2712,2712 -1498,0 -2712,-1214 -2712,-2712 0,-1497 1214,-2712 2712,-2712zm12 24169l0 -82c491,-1325 2988,-3138 4189,-3933 986,-653 983,-1269 983,-2709 0,-3913 0,-7827 0,-11741 -1902,42 -4087,2994 -5169,4505l-3 -3 0 -18 -12 10 -13 -10 0 18 -2 3c-1083,-1511 -3268,-4463 -5170,-4505 0,3914 0,7828 0,11741 0,1440 -3,2056 984,2709 1200,795 3698,2608 4188,3933l0 82 13 6 12 -6z"/>
  <path class="fil5" d="M36713 22619c586,97 1049,334 1390,711 342,378 514,826 514,1349 0,858 -313,1512 -936,1957 -622,447 -1498,671 -2629,671 -645,0 -1242,-24 -1795,-68l0 -8137c589,-46 1185,-69 1785,-69 1175,0 1972,151 2391,453 421,303 630,740 630,1311 0,389 -120,746 -357,1073 -238,326 -569,576 -993,749zm-2092 -230c768,-69 1316,-208 1638,-421 325,-211 488,-523 488,-932 0,-343 -111,-601 -332,-770 -221,-169 -606,-254 -1155,-254 -233,0 -445,16 -639,46l0 2331zm0 3905c115,16 259,23 431,23 665,0 1186,-132 1566,-396 379,-261 567,-641 567,-1135 0,-555 -156,-941 -469,-1155 -313,-212 -779,-320 -1398,-320 -208,0 -441,27 -697,78l0 2905z"/>
  <path id="1" class="fil5" d="M46084 27239l-1564 0 -2505 -3793c-245,37 -461,56 -651,56l0 3737 -1364 0 0 -8137c604,-46 1359,-69 2269,-69 1905,0 2858,660 2858,1982 0,1126 -586,1858 -1762,2199l2719 4025zm-4720 -4716c823,-52 1424,-192 1801,-419 379,-227 567,-547 567,-960 0,-398 -120,-686 -361,-865 -240,-176 -623,-267 -1147,-267 -169,0 -457,16 -860,46l0 2465z"/>
  <path id="2" class="fil5" d="M53946 27239l-1372 0 -896 -2363 -3045 0 -967 2363 -1278 0 3320 -8137 1093 0 3145 8137zm-2695 -3421l-1060 -2770 -1131 2770 2191 0z"/>
  <path id="3" class="fil5" d="M60610 25028l-265 1598c-753,502 -1649,754 -2683,754 -1040,0 -1885,-367 -2535,-1103 -650,-736 -972,-1709 -972,-2922 0,-1312 364,-2373 1091,-3180 728,-806 1739,-1209 3033,-1209 812,0 1526,103 2144,309l-387 1188c-255,-144 -555,-258 -898,-349 -344,-90 -645,-135 -902,-135 -827,0 -1474,285 -1941,854 -466,566 -699,1358 -699,2371 0,956 200,1709 601,2257 402,546 938,822 1610,822 477,0 932,-98 1364,-292 435,-196 913,-517 1439,-963z"/>
  <polygon id="4" class="fil5" points="66750,27239 61853,27239 61853,19102 66581,19102 66256,20114 63218,20114 63218,22354 65865,22354 65551,23333 63218,23333 63218,26215 66750,26215 "/>
 </g>
</svg>
